<mxfile host="app.diagrams.net" modified="2024-07-18T04:07:10.871Z" agent="Mozilla/5.0 (Windows NT 10.0; Win64; x64) AppleWebKit/537.36 (KHTML, like Gecko) Chrome/126.0.0.0 Safari/537.36" etag="wkrALAcpsuJNa_PXyUuO" version="24.7.1" type="github">
  <diagram name="Page-1" id="5zcdkcwB6fB8AWfiJBQ6">
    <mxGraphModel dx="1674" dy="786" grid="1" gridSize="10" guides="1" tooltips="1" connect="1" arrows="1" fold="1" page="1" pageScale="1" pageWidth="850" pageHeight="1100" math="0" shadow="0">
      <root>
        <mxCell id="0" />
        <mxCell id="1" parent="0" />
        <mxCell id="CVHzDuQ0u48eGmQXn5X--4" value="" style="edgeStyle=orthogonalEdgeStyle;rounded=0;orthogonalLoop=1;jettySize=auto;html=1;" edge="1" parent="1" source="CVHzDuQ0u48eGmQXn5X--1" target="CVHzDuQ0u48eGmQXn5X--3">
          <mxGeometry relative="1" as="geometry" />
        </mxCell>
        <mxCell id="CVHzDuQ0u48eGmQXn5X--1" value="" style="rounded=0;whiteSpace=wrap;html=1;" vertex="1" parent="1">
          <mxGeometry width="850" height="100" as="geometry" />
        </mxCell>
        <mxCell id="CVHzDuQ0u48eGmQXn5X--2" value="" style="rounded=0;whiteSpace=wrap;html=1;" vertex="1" parent="1">
          <mxGeometry y="940" width="850" height="160" as="geometry" />
        </mxCell>
        <mxCell id="CVHzDuQ0u48eGmQXn5X--3" value="" style="rounded=0;whiteSpace=wrap;html=1;" vertex="1" parent="1">
          <mxGeometry y="100" width="850" height="220" as="geometry" />
        </mxCell>
        <mxCell id="CVHzDuQ0u48eGmQXn5X--5" value="" style="rounded=0;whiteSpace=wrap;html=1;" vertex="1" parent="1">
          <mxGeometry x="85" y="390" width="250" height="60" as="geometry" />
        </mxCell>
        <mxCell id="CVHzDuQ0u48eGmQXn5X--6" value="Ticket Type" style="text;html=1;align=center;verticalAlign=middle;whiteSpace=wrap;rounded=0;" vertex="1" parent="1">
          <mxGeometry x="180" y="405" width="60" height="30" as="geometry" />
        </mxCell>
        <mxCell id="CVHzDuQ0u48eGmQXn5X--7" value="" style="rounded=0;whiteSpace=wrap;html=1;" vertex="1" parent="1">
          <mxGeometry x="100" y="520" width="340" height="60" as="geometry" />
        </mxCell>
        <mxCell id="CVHzDuQ0u48eGmQXn5X--8" value="" style="rounded=0;whiteSpace=wrap;html=1;" vertex="1" parent="1">
          <mxGeometry x="100" y="605" width="340" height="60" as="geometry" />
        </mxCell>
        <mxCell id="CVHzDuQ0u48eGmQXn5X--9" value="" style="rounded=0;whiteSpace=wrap;html=1;" vertex="1" parent="1">
          <mxGeometry x="100" y="690" width="340" height="60" as="geometry" />
        </mxCell>
        <mxCell id="CVHzDuQ0u48eGmQXn5X--11" value="" style="rounded=0;whiteSpace=wrap;html=1;" vertex="1" parent="1">
          <mxGeometry x="100" y="770" width="340" height="60" as="geometry" />
        </mxCell>
        <mxCell id="CVHzDuQ0u48eGmQXn5X--13" value="" style="rounded=0;whiteSpace=wrap;html=1;" vertex="1" parent="1">
          <mxGeometry x="450" y="520" width="340" height="60" as="geometry" />
        </mxCell>
        <mxCell id="CVHzDuQ0u48eGmQXn5X--14" value="" style="rounded=0;whiteSpace=wrap;html=1;" vertex="1" parent="1">
          <mxGeometry x="450" y="605" width="340" height="60" as="geometry" />
        </mxCell>
        <mxCell id="CVHzDuQ0u48eGmQXn5X--15" value="" style="rounded=0;whiteSpace=wrap;html=1;" vertex="1" parent="1">
          <mxGeometry x="450" y="690" width="340" height="60" as="geometry" />
        </mxCell>
        <mxCell id="CVHzDuQ0u48eGmQXn5X--16" value="" style="rounded=0;whiteSpace=wrap;html=1;" vertex="1" parent="1">
          <mxGeometry x="450" y="770" width="340" height="60" as="geometry" />
        </mxCell>
        <mxCell id="CVHzDuQ0u48eGmQXn5X--18" value="Banner Img for sport" style="text;html=1;align=center;verticalAlign=middle;whiteSpace=wrap;rounded=0;" vertex="1" parent="1">
          <mxGeometry x="390" y="195" width="60" height="30" as="geometry" />
        </mxCell>
        <mxCell id="CVHzDuQ0u48eGmQXn5X--19" value="Navbar" style="text;html=1;align=center;verticalAlign=middle;whiteSpace=wrap;rounded=0;" vertex="1" parent="1">
          <mxGeometry x="90" y="40" width="60" height="30" as="geometry" />
        </mxCell>
        <mxCell id="CVHzDuQ0u48eGmQXn5X--20" value="Navlink" style="text;html=1;align=center;verticalAlign=middle;whiteSpace=wrap;rounded=0;" vertex="1" parent="1">
          <mxGeometry x="540" y="40" width="60" height="30" as="geometry" />
        </mxCell>
        <mxCell id="CVHzDuQ0u48eGmQXn5X--21" value="Navlink" style="text;html=1;align=center;verticalAlign=middle;whiteSpace=wrap;rounded=0;" vertex="1" parent="1">
          <mxGeometry x="610" y="40" width="60" height="30" as="geometry" />
        </mxCell>
        <mxCell id="CVHzDuQ0u48eGmQXn5X--22" value="Navlink" style="text;html=1;align=center;verticalAlign=middle;whiteSpace=wrap;rounded=0;" vertex="1" parent="1">
          <mxGeometry x="680" y="40" width="60" height="30" as="geometry" />
        </mxCell>
        <mxCell id="CVHzDuQ0u48eGmQXn5X--23" value="Navlink" style="text;html=1;align=center;verticalAlign=middle;whiteSpace=wrap;rounded=0;" vertex="1" parent="1">
          <mxGeometry x="750" y="40" width="60" height="30" as="geometry" />
        </mxCell>
        <mxCell id="CVHzDuQ0u48eGmQXn5X--24" value="Ticket" style="text;html=1;align=center;verticalAlign=middle;whiteSpace=wrap;rounded=0;" vertex="1" parent="1">
          <mxGeometry x="140" y="535" width="60" height="30" as="geometry" />
        </mxCell>
        <mxCell id="CVHzDuQ0u48eGmQXn5X--25" value="Ticket" style="text;html=1;align=center;verticalAlign=middle;whiteSpace=wrap;rounded=0;" vertex="1" parent="1">
          <mxGeometry x="470" y="535" width="60" height="30" as="geometry" />
        </mxCell>
        <mxCell id="CVHzDuQ0u48eGmQXn5X--26" value="Ticket" style="text;html=1;align=center;verticalAlign=middle;whiteSpace=wrap;rounded=0;" vertex="1" parent="1">
          <mxGeometry x="140" y="620" width="60" height="30" as="geometry" />
        </mxCell>
        <mxCell id="CVHzDuQ0u48eGmQXn5X--27" value="Ticket" style="text;html=1;align=center;verticalAlign=middle;whiteSpace=wrap;rounded=0;" vertex="1" parent="1">
          <mxGeometry x="480" y="620" width="60" height="30" as="geometry" />
        </mxCell>
        <mxCell id="CVHzDuQ0u48eGmQXn5X--28" value="Ticket" style="text;html=1;align=center;verticalAlign=middle;whiteSpace=wrap;rounded=0;" vertex="1" parent="1">
          <mxGeometry x="140" y="705" width="60" height="30" as="geometry" />
        </mxCell>
        <mxCell id="CVHzDuQ0u48eGmQXn5X--29" value="Ticket" style="text;html=1;align=center;verticalAlign=middle;whiteSpace=wrap;rounded=0;" vertex="1" parent="1">
          <mxGeometry x="500" y="705" width="60" height="30" as="geometry" />
        </mxCell>
        <mxCell id="CVHzDuQ0u48eGmQXn5X--30" value="Ticket" style="text;html=1;align=center;verticalAlign=middle;whiteSpace=wrap;rounded=0;" vertex="1" parent="1">
          <mxGeometry x="140" y="785" width="60" height="30" as="geometry" />
        </mxCell>
        <mxCell id="CVHzDuQ0u48eGmQXn5X--31" value="Ticket" style="text;html=1;align=center;verticalAlign=middle;whiteSpace=wrap;rounded=0;" vertex="1" parent="1">
          <mxGeometry x="510" y="785" width="60" height="30" as="geometry" />
        </mxCell>
        <mxCell id="CVHzDuQ0u48eGmQXn5X--39" value="Button" style="text;html=1;align=center;verticalAlign=middle;whiteSpace=wrap;rounded=0;" vertex="1" parent="1">
          <mxGeometry x="330" y="535" width="60" height="30" as="geometry" />
        </mxCell>
        <mxCell id="CVHzDuQ0u48eGmQXn5X--40" value="Button" style="text;html=1;align=center;verticalAlign=middle;whiteSpace=wrap;rounded=0;" vertex="1" parent="1">
          <mxGeometry x="700" y="540" width="60" height="30" as="geometry" />
        </mxCell>
        <mxCell id="CVHzDuQ0u48eGmQXn5X--41" value="Button" style="text;html=1;align=center;verticalAlign=middle;whiteSpace=wrap;rounded=0;" vertex="1" parent="1">
          <mxGeometry x="340" y="620" width="60" height="30" as="geometry" />
        </mxCell>
        <mxCell id="CVHzDuQ0u48eGmQXn5X--42" value="Button" style="text;html=1;align=center;verticalAlign=middle;whiteSpace=wrap;rounded=0;" vertex="1" parent="1">
          <mxGeometry x="340" y="620" width="60" height="30" as="geometry" />
        </mxCell>
        <mxCell id="CVHzDuQ0u48eGmQXn5X--43" value="Button" style="text;html=1;align=center;verticalAlign=middle;whiteSpace=wrap;rounded=0;" vertex="1" parent="1">
          <mxGeometry x="700" y="620" width="60" height="30" as="geometry" />
        </mxCell>
        <mxCell id="CVHzDuQ0u48eGmQXn5X--44" value="Button" style="text;html=1;align=center;verticalAlign=middle;whiteSpace=wrap;rounded=0;" vertex="1" parent="1">
          <mxGeometry x="350" y="705" width="60" height="30" as="geometry" />
        </mxCell>
        <mxCell id="CVHzDuQ0u48eGmQXn5X--45" value="Button" style="text;html=1;align=center;verticalAlign=middle;whiteSpace=wrap;rounded=0;" vertex="1" parent="1">
          <mxGeometry x="700" y="705" width="60" height="30" as="geometry" />
        </mxCell>
        <mxCell id="CVHzDuQ0u48eGmQXn5X--46" value="Button" style="text;html=1;align=center;verticalAlign=middle;whiteSpace=wrap;rounded=0;" vertex="1" parent="1">
          <mxGeometry x="350" y="785" width="60" height="30" as="geometry" />
        </mxCell>
        <mxCell id="CVHzDuQ0u48eGmQXn5X--47" value="Button" style="text;html=1;align=center;verticalAlign=middle;whiteSpace=wrap;rounded=0;" vertex="1" parent="1">
          <mxGeometry x="700" y="785" width="60" height="30" as="geometry" />
        </mxCell>
        <mxCell id="CVHzDuQ0u48eGmQXn5X--48" value="Footer" style="text;html=1;align=center;verticalAlign=middle;whiteSpace=wrap;rounded=0;" vertex="1" parent="1">
          <mxGeometry x="400" y="920" width="60" height="30" as="geometry" />
        </mxCell>
        <mxCell id="CVHzDuQ0u48eGmQXn5X--49" value="" style="rounded=0;whiteSpace=wrap;html=1;" vertex="1" parent="1">
          <mxGeometry x="60" y="990" width="740" height="30" as="geometry" />
        </mxCell>
        <mxCell id="CVHzDuQ0u48eGmQXn5X--50" value="Form" style="text;html=1;align=center;verticalAlign=middle;whiteSpace=wrap;rounded=0;" vertex="1" parent="1">
          <mxGeometry x="110" y="990" width="60" height="30" as="geometry" />
        </mxCell>
        <mxCell id="CVHzDuQ0u48eGmQXn5X--51" value="Form" style="text;html=1;align=center;verticalAlign=middle;whiteSpace=wrap;rounded=0;" vertex="1" parent="1">
          <mxGeometry x="280" y="990" width="60" height="30" as="geometry" />
        </mxCell>
        <mxCell id="CVHzDuQ0u48eGmQXn5X--52" value="Form" style="text;html=1;align=center;verticalAlign=middle;whiteSpace=wrap;rounded=0;" vertex="1" parent="1">
          <mxGeometry x="470" y="990" width="60" height="30" as="geometry" />
        </mxCell>
        <mxCell id="CVHzDuQ0u48eGmQXn5X--54" value="Button" style="text;html=1;align=center;verticalAlign=middle;whiteSpace=wrap;rounded=0;" vertex="1" parent="1">
          <mxGeometry x="680" y="990" width="60" height="30" as="geometry" />
        </mxCell>
        <mxCell id="CVHzDuQ0u48eGmQXn5X--55" value="Link" style="text;html=1;align=center;verticalAlign=middle;whiteSpace=wrap;rounded=0;" vertex="1" parent="1">
          <mxGeometry x="140" y="1030" width="60" height="30" as="geometry" />
        </mxCell>
        <mxCell id="CVHzDuQ0u48eGmQXn5X--56" value="Us" style="text;html=1;align=center;verticalAlign=middle;whiteSpace=wrap;rounded=0;" vertex="1" parent="1">
          <mxGeometry x="620" y="1030" width="60" height="30" as="geometry" />
        </mxCell>
      </root>
    </mxGraphModel>
  </diagram>
</mxfile>
